<?xml version="1.0" encoding="utf-8"?>
<!-- Generator: Adobe Illustrator 30.0.0, SVG Export Plug-In . SVG Version: 9.03 Build 0)  -->
<svg version="1.1" id="Layer_1" xmlns="http://www.w3.org/2000/svg" xmlns:xlink="http://www.w3.org/1999/xlink" x="0px" y="0px"
	 viewBox="0 0 64 64" style="enable-background:new 0 0 64 64;" xml:space="preserve">
<g>
	<g>
		<path style="fill:#FFFFFF;" d="M58.5237427,12.5464678c-3.7828369-0.3387451-8.0028687,0.2701416-11.833374-0.0311279
			c-1.9925537-2.4279785-3.3986816-8.2835693-6.3062744-9.6310425c-0.5528564-0.2562256-1.0758057-0.3884277-1.6843872-0.4406128
			c-3.4934082-0.2996826-10.1563721-0.302063-13.6478271,0c-1.6439819,0.1422119-2.6826172,0.9128418-3.7012939,2.1423953
			l-4.2084961,7.9200439c0,0-0.3076191-0.0097046-2.4388456-0.0169678
			c-0.6207886-1.4144287-2.1095581-2.4129639-3.8528442-2.4129639c-1.7668457,0-3.2675776,1.02771-3.8726802,2.4725952
			c-0.3461914,0.0716553-2.8941016,0.1947021-3.2225318,0.2957153c-2.010437,0.6185303-3.4717407,2.5126343-3.7520142,4.5709219
			L0,43.9767036c0.3779297,2.4467773,2.2213745,4.3666992,4.6866455,4.6986694h54.3782959
			C61.5348511,48.3530464,64,45.9055977,64,43.3937569c0-8.1882324,0-17.2587891,0-25.9783325
			C63.5809937,14.6725054,61.2907715,12.7942095,58.5237427,12.5464678z M45.3643188,36.0372505
			c-5.7601929,10.6173706-21.1037598,10.757019-27.0385742,0.2385864
			c-5.7255249-10.1473389,1.4925537-22.9642944,13.1654053-23.1582642
			C43.2977905,12.9213457,51.0090332,25.6327095,45.3643188,36.0372505z M57.6585693,21.3806953
			c-3.0479736-0.0821533-3.4110107-4.6886597-0.6856079-5.2543945
			C61.3100586,15.2259722,61.3553467,21.4804268,57.6585693,21.3806953z"/>
		<path style="fill:#FFFFFF;" d="M30.2425537,17.9051094c-5.970459,0.6742554-10.1607056,6.7546387-9.1472778,12.5908203
			c1.5664673,9.0206909,13.1380615,12.1605835,19.0169678,5.0704956
			C46.4815063,27.8849678,40.12677,16.7887764,30.2425537,17.9051094z"/>
	</g>
	<polygon style="fill:#ED1B36;" points="40.6644821,25.446701 19.9118271,44.2871208 30.5018349,44.287117 30.5018349,61.781971 
		50.8270454,61.781971 50.8270454,44.287117 61.4170609,44.2871208 	"/>
</g>
</svg>
