<?xml version="1.0" encoding="utf-8"?>
<!-- Generator: Adobe Illustrator 30.0.0, SVG Export Plug-In . SVG Version: 9.03 Build 0)  -->
<svg version="1.1" id="Layer_1" xmlns="http://www.w3.org/2000/svg" xmlns:xlink="http://www.w3.org/1999/xlink" x="0px" y="0px"
	 viewBox="0 0 109.7833557 100" style="enable-background:new 0 0 109.7833557 100;" xml:space="preserve">
<g>
	<g>
		<path style="fill:#FFFFFF;" d="M18.4643879,28.6053886c-0.9349251-0.555891-1.9360294-0.857111-3.0033092-0.9027519v-0.2738361
			c0.9760017-0.2186127,1.8449783-0.5905762,2.6067028-1.114975c0.7614956-0.5243969,1.3614273-1.1994057,1.7991104-2.0250263
			c0.4379101-0.8256187,0.6567516-1.7854176,0.6567516-2.8803101c0-1.4043293-0.346632-2.6475506-1.039896-3.7282944
			c-0.693264-1.0811996-1.7285976-1.9269009-3.1057701-2.5380144c-1.3774023-0.6111135-3.0971003-0.9168987-5.1584091-0.9168987H0
			v28.0217667h11.9721642c2.0978212,0,3.8629303-0.3372765,5.2950993-1.0122871
			c1.4319401-0.6750069,2.5151939-1.5941887,3.2495346-2.7570839c0.7341118-1.163353,1.101511-2.487812,1.101511-3.9747467
			c0-1.3774033-0.2920933-2.565855-0.8755951-3.5644493C20.1587563,29.9394321,19.3993149,29.1621895,18.4643879,28.6053886z
			 M5.9244685,19.0142384h4.5016561c1.3135061,0,2.3280725,0.3098927,3.044157,0.9301338
			c0.7160845,0.6206989,1.0741262,1.4367332,1.0741262,2.4494743c0,0.738905-0.1846113,1.3728371-0.5540638,1.9018002
			c-0.3694515,0.5289612-0.8712587,0.9369793-1.5051918,1.2245083s-1.356864,0.4308376-2.1685629,0.4308376H5.9244685V19.0142384z
			 M14.366642,36.4526482c-0.7573881,0.633934-1.961359,0.9506721-3.6121407,0.9506721H5.9244685v-7.4433517h4.966723
			c0.9486179,0,1.7671623,0.1688671,2.4560919,0.5065994c0.6884718,0.3372765,1.2197161,0.8027992,1.5939608,1.3956566
			c0.3740158,0.5928574,0.5609102,1.2769966,0.5609102,2.0519562C15.5021544,34.9725609,15.1235743,35.818718,14.366642,36.4526482z
			"/>
		<path style="fill:#FFFFFF;" d="M39.1466293,22.639843c-0.8347473-0.5746002-1.7879295-0.9985924-2.8597717-1.2724304
			c-1.071846-0.2733803-2.1913834-0.4102993-3.3590698-0.4102993c-1.6783962,0-3.1536942,0.2528439-4.4261246,0.7594433
			c-1.2726574,0.5061417-2.3102722,1.2267895-3.1128445,2.1614876c-0.8027992,0.935154-1.340889,2.0414562-1.6144981,3.3184509
			l5.3909416,0.4376831c0.2003574-0.693264,0.6108856-1.2701473,1.2313557-1.7311077
			c0.6202412-0.4605026,1.4547596-0.6909828,2.5037842-0.6909828c0.9942589,0,1.7628288,0.2373257,2.3057098,0.7115211
			c0.5424271,0.4746513,0.8139801,1.1450958,0.8139801,2.0113335v0.0821514c0,0.4472675-0.1688652,0.784544-0.5061417,1.0127411
			c-0.3377304,0.228199-0.8803864,0.3988895-1.6281891,0.512989c-0.7482605,0.1140995-1.7333908,0.2350445-2.9556179,0.3623772
			c-1.039896,0.1008644-2.0318718,0.273838-2.9759254,0.5202923c-0.9440536,0.2459965-1.7854195,0.6111126-2.5243225,1.0944347
			c-0.738905,0.4837799-1.3228626,1.1218224-1.7514172,1.915493c-0.4287853,0.7936707-0.6430626,1.7744637-0.6430626,2.941925
			c0,1.386528,0.3030472,2.5425758,0.9098244,3.468605c0.6065502,0.9255676,1.4344501,1.6233978,2.4834766,2.093029
			c1.0487957,0.4700851,2.2438679,0.7046738,3.5847569,0.7046738c1.039896,0,1.9565678-0.1392021,2.7502403-0.4171448
			c0.7934418-0.2779465,1.4730148-0.6658821,2.0387154-1.1628952c0.5654755-0.4970169,1.0168495-1.0743561,1.3545837-1.7311096
			h0.1640739v2.9145432h5.5278587V28.0718613c0-1.2496109-0.24189-2.3235092-0.7252121-3.2221508
			C40.6401825,23.9515247,39.9811478,23.2144451,39.1466293,22.639843z M36.0611687,34.7352333
			c0,0.7389069-0.1871223,1.4002228-0.5609093,1.9839516c-0.3742447,0.5841866-0.8895149,1.0469704-1.5462685,1.388813
			c-0.6567535,0.3422966-1.4139137,0.5129852-2.2712517,0.5129852c-0.8940773,0-1.6304722-0.2072029-2.2096386-0.6225204
			c-0.5793934-0.4148636-0.8689766-1.0191307-0.8689766-1.8128052c0-0.5472183,0.1414833-1.0054359,0.4242191-1.3751183
			c0.2827377-0.3692245,0.6793461-0.6635971,1.1902809-0.8826675c0.5109329-0.2186127,1.1083546-0.3783531,1.7924919-0.4787598
			c0.3192482-0.045639,0.6750107-0.0976677,1.0672798-0.1574554c0.3920441-0.058876,0.784317-0.1273346,1.17659-0.2049217
			c0.3922691-0.0775871,0.7457466-0.1643028,1.0604324-0.2601471c0.3146858-0.0958405,0.5631905-0.2026367,0.7457504-0.3213005
			V34.7352333z"/>
		<path style="fill:#FFFFFF;" d="M55.9709625,20.9297295c-1.17659,0-2.2164841,0.3349953-3.1194649,1.0054398
			c-0.9032059,0.6704445-1.5462685,1.6580849-1.929409,2.9624615h-0.2188416v-3.6671352h-5.6508598v21.016552h5.8288536V30.3570328
			c0-0.8575668,0.193512-1.614727,0.5814476-2.2714787c0.3874779-0.6567535,0.9166679-1.1697426,1.5871124-1.539423
			c0.6704483-0.3692226,1.4342232-0.5540638,2.29179-0.5540638c0.4014015,0,0.843647,0.0324039,1.327198,0.0958443
			c0.483551,0.0638943,0.862133,0.1369171,1.1357422,0.2190685v-5.1718712
			c-0.2555847-0.0638962-0.5520134-0.1140995-0.889286-0.1506119C56.5775108,20.9479866,56.262825,20.9297295,55.9709625,20.9297295
			z"/>
		<path style="fill:#FFFFFF;" d="M16.69944,64.8420639c1.5452328-0.7235107,2.72616-1.7655869,3.5430088-3.1252975
			c0.816618-1.3597145,1.2255058-2.9864464,1.2255058-4.8797379c0-1.8839989-0.4019222-3.5242004-1.2046089-4.9215279
			c-0.8029175-1.3964005-1.967823-2.4779472-3.4944801-3.2437134c-1.526659-0.76577-3.3667765-1.1484222-5.5198879-1.1484222H0
			v28.5121803h6.0281539V65.9282532h4.4004922l5.4005404,10.1072922h6.6548376l-6.0510521-11.079422
			C16.5215511,64.9178391,16.6128902,64.8826065,16.69944,64.8420639z M6.0281539,52.4518623h4.065208
			c1.1600275,0,2.1231575,0.1694984,2.8889256,0.5080338c0.7655344,0.3390007,1.3364935,0.8331032,1.7121792,1.4827766
			c0.3759184,0.6496696,0.5639935,1.4479446,0.5639935,2.3943558c0,0.9375916-0.1880751,1.7219315-0.5639935,2.3530273
			c-0.3756857,0.6310959-0.9443226,1.1043053-1.7054462,1.4200859c-0.7611227,0.3153152-1.7170553,0.4732056-2.8677959,0.4732056
			H6.0281539V52.4518623z"/>
		<path style="fill:#FFFFFF;" d="M39.4353905,56.0851936c-0.8493538-0.5846596-1.8194504-1.0160713-2.9098206-1.2947006
			c-1.0908356-0.2781639-2.229969-0.4174805-3.4178581-0.4174805c-1.7080002,0-3.2088852,0.2572708-4.5035858,0.7727356
			c-1.2951641,0.5149994-2.3507061,1.2482605-3.1675549,2.1993179c-0.8168488,0.951519-1.364357,2.0771828-1.6425228,3.3765259
			l5.4852905,0.445343c0.2038651-0.7053986,0.6213436-1.2923775,1.2529049-1.7614021
			c0.6310959-0.4685631,1.47999-0.7030792,2.5476055-0.7030792c1.011425,0,1.7934456,0.2414818,2.3460617,0.7239761
			c0.5516853,0.4829559,0.8279953,1.1651344,0.8279953,2.0465355v0.0835876c0,0.4550934-0.1718216,0.798275-0.5150032,1.0304642
			c-0.3436432,0.232193-0.8957939,0.4058723-1.6564522,0.5219688c-0.7615891,0.1160927-1.7637253,0.2391548-3.0073433,0.3687172
			c-1.0583286,0.1026306-2.0674324,0.2786293-3.0282402,0.5293999c-0.9603443,0.2502975-1.8166656,0.6218033-2.5685024,1.1135864
			c-0.7518349,0.4922485-1.3457813,1.1414566-1.7818375,1.9490128c-0.4365196,0.8075638-0.654314,1.8055267-0.654314,2.9934158
			c0,1.4107971,0.3083496,2.5870743,0.9255142,3.5293121c0.6171646,0.9417648,1.4595566,1.6518097,2.5271721,2.1296539
			c1.067152,0.4783173,2.2829056,0.7170105,3.6472626,0.7170105c1.0583286,0,1.9908104-0.1416397,2.7983704-0.4244461
			c0.8075638-0.2828064,1.4990273-0.677536,2.074398-1.1832504c0.5753708-0.5057068,1.0346451-1.0931549,1.3782883-1.7613983
			h0.1671791v2.9655457h5.6246033V61.612278c0-1.2714806-0.2461205-2.3641739-0.7383652-3.2785416
			C40.9543877,57.4198303,40.2847481,56.6698532,39.4353905,56.0851936z M36.2957001,68.3922653
			c0,0.7518387-0.1903992,1.4247284-0.5707283,2.0186768c-0.3807907,0.5944061-0.9050827,1.0652924-1.5733261,1.4131165
			c-0.6682472,0.3482895-1.4386597,0.521965-2.31077,0.521965c-0.9097271,0-1.6592407-0.2108307-2.2485428-0.6334152
			c-0.5893021-0.4221268-0.8841839-1.036972-0.8841839-1.8445282c0-0.5568008,0.1439571-1.0230408,0.4318752-1.3991852
			c0.2874527-0.3756866,0.6910019-0.6752167,1.2111111-0.8981171c0.5196438-0.2224426,1.1275215-0.3849792,1.8236313-0.4871445
			c0.3250694-0.0464325,0.686821-0.0993729,1.0861893-0.1602097c0.3989067-0.059906,0.7978134-0.1295624,1.1971817-0.2085037
			c0.3989029-0.078949,0.7588005-0.1671829,1.0787621-0.2647018c0.3204231-0.0975189,0.5730476-0.2061844,0.7588005-0.3269272
			V68.3922653z"/>
		<rect x="45.393425" y="54.6511803" style="fill:#FFFFFF;" width="5.9306335" height="21.384367"/>
		<path style="fill:#FFFFFF;" d="M48.3724403,45.89431c-0.8725739,0-1.6244125,0.2948837-2.2555084,0.8841858
			s-0.9464111,1.2970238-0.9464111,2.1231575c0,0.8261375,0.3129921,1.5315361,0.9394455,2.1161957
			c0.6269188,0.5846558,1.3806114,0.8772163,2.2624741,0.8772163s1.6360207-0.2948799,2.2624741-0.884182
			s0.9394455-1.2970238,0.9394455-2.1231613c0-0.8261337-0.3129921-1.5315323-0.9394455-2.1161919
			C50.008461,46.1868744,49.254303,45.89431,48.3724403,45.89431z"/>
		<path style="fill:#FFFFFF;" d="M66.5678864,63.6170197l-3.8706284-0.7797012
			c-0.9928513-0.21315-1.6936035-0.4964218-2.1017952-0.8488884c-0.4086571-0.352932-0.6129875-0.7843437-0.6129875-1.2947006
			c0-0.6403847,0.3157806-1.1535263,0.9468765-1.5385017c0.6310959-0.3849716,1.4061508-0.5776901,2.3251648-0.5776901
			c0.6863594,0,1.27845,0.1137733,1.7748718,0.3408546c0.4964294,0.2275505,0.8981171,0.5289345,1.2041473,0.9050827
			c0.306488,0.3756866,0.5057144,0.7959518,0.598587,1.2598724l5.4295654-0.3343582
			c-0.2595901-1.9671249-1.1669922-3.5218773-2.7217484-4.6637955c-1.5547562-1.1414528-3.6820908-1.7121811-6.3829422-1.7121811
			c-1.8287392,0-3.422966,0.2693443-4.7822151,0.8075638c-1.3597145,0.5382195-2.4133987,1.3039856-3.1605911,2.2968369
			c-0.7471924,0.9933167-1.1205559,2.1765633-1.1205559,3.5502052c0,1.59655,0.5080376,2.9098244,1.5245705,3.939827
			c1.0160713,1.0304642,2.5685005,1.7544403,4.6568298,2.1719208l3.7034531,0.7378998
			c0.9278374,0.1857529,1.6146584,0.4523087,2.0604668,0.8005981c0.445343,0.3478241,0.6724243,0.7913055,0.6817169,1.3295288
			c-0.0092926,0.6403809-0.3315735,1.1623459-0.967308,1.5663605c-0.6357422,0.4035492-1.4734879,0.6055603-2.5127792,0.6055603
			c-1.0583267,0-1.9262581-0.2252274-2.6037941-0.6752167c-0.677536-0.4504471-1.1043015-1.1070862-1.2807693-1.9699097
			L53.5229111,69.84021c0.2874527,2.041893,1.2691574,3.6546936,2.9446526,4.837944
			c1.6750259,1.1832504,3.9277496,1.7748718,6.7590904,1.7748718c1.8561401,0,3.4963379-0.2944183,4.9210663-0.8837204
			s2.5480652-1.4131165,3.3690948-2.4714432c0.8214951-1.057869,1.2324753-2.2875519,1.2324753-3.6890564
			c0-1.5408249-0.5108185-2.7844467-1.5315323-3.7313232C70.196579,64.7310715,68.6469345,64.0442505,66.5678864,63.6170197z"/>
		<path style="fill:#FFFFFF;" d="M91.4309464,57.073864c-0.9143677-0.8999748-1.9815216-1.5751877-3.2019196-2.0256386
			c-1.2208633-0.4499855-2.5364609-0.6752129-3.9467926-0.6752129c-2.0980759,0-3.9240341,0.4639206-5.4783173,1.3922195
			c-1.5547562,0.9283028-2.7593689,2.2230034-3.6128998,3.8840981c-0.8540039,1.6615639-1.2807693,3.5920029-1.2807693,5.7917862
			c0,2.255043,0.4267654,4.2068405,1.2807693,5.8540115c0.8535309,1.6476288,2.0720749,2.9191055,3.6546936,3.8144379
			c1.5821457,0.8957977,3.473114,1.3434601,5.6728973,1.3434601c1.7632599,0,3.3203354-0.2712021,4.6707611-0.814064
			c1.3504257-0.5433273,2.4551926-1.3039856,3.3133774-2.283371c0.8586426-0.97892,1.4270477-2.1278,1.7056732-3.4457169
			l-5.4852905-0.3617554c-0.2043304,0.5382156-0.5010681,0.9928513-0.8911514,1.364357
			c-0.3896179,0.3710403-0.8586426,0.6496735-1.4061508,0.8349609c-0.5475082,0.1857529-1.1507416,0.2786255-1.8097,0.2786255
			c-0.9933167,0-1.8514938-0.2089691-2.5754623-0.6264496c-0.7239761-0.4179459-1.2830963-1.0114288-1.6778183-1.7823029
			c-0.3942642-0.7699432-0.5916214-1.6843185-0.5916214-2.7426453V66.860733h14.5625763v-1.6285934
			c0-1.818985-0.2554092-3.4085655-0.7657623-4.76828C93.0572128,59.1041451,92.3448563,57.9743042,91.4309464,57.073864z
			 M79.7846603,63.1856079c0.0361633-0.7670746,0.2262115-1.4722099,0.5851517-2.1092262
			c0.3900833-0.6914673,0.9306259-1.243618,1.6220932-1.6569176c0.6914597-0.412838,1.4874115-0.6194878,2.3873901-0.6194878
			c0.8632889,0,1.6220856,0.188076,2.2764053,0.5642242c0.6543121,0.3756866,1.1669922,0.8930092,1.5384979,1.5519676
			c0.3710403,0.6594238,0.5567932,1.4154396,0.5567932,2.2694397H79.7846603z"/>
		<path style="fill:#FFFFFF;" d="M108.8787384,54.4008751c-0.3436432-0.0371475-0.6636047-0.0557251-0.9608078-0.0557251
			c-1.1971741,0-2.2555084,0.3408585-3.174057,1.023037c-0.919014,0.6821785-1.5733261,1.6871033-1.962944,3.0143089h-0.222908
			v-3.7313156h-5.7495193v21.3843651h5.9306335V63.9374428c0-0.8725739,0.1968994-1.6429863,0.5916214-2.3112335
			c0.3942642-0.6682472,0.9329453-1.1902122,1.6151276-1.5663643c0.6821747-0.3756828,1.4590912-0.5637589,2.331665-0.5637589
			c0.4081879,0,0.8586426,0.0329704,1.3504257,0.0975189c0.4917831,0.0650139,0.8772202,0.1393166,1.1553802,0.2229042v-5.2623863
			C109.5237656,54.489109,109.2219162,54.4380264,108.8787384,54.4008751z"/>
	</g>
	<rect x="63.1361008" y="14.2252817" style="fill:#EC1E37;" width="11.2611876" height="28.5121784"/>
	<rect x="80.8291321" y="7.0974693" style="fill:#EC1E37;" width="11.2611876" height="35.6399918"/>
	<rect x="98.522171" y="-0.0303431" style="fill:#EC1E37;" width="11.2611876" height="42.7678032"/>
	<g>
		<g>
			<path style="fill:#FFFFFF;" d="M81.0867004,89.6933746v-1.7277298c0-0.4702606,0.0959244-0.9429245,0.2878952-1.417984
				c0.1919708-0.4751816,0.4343643-0.9142303,0.7270584-1.3173752c0.2927017-0.4031525,0.5877991-0.7293472,0.8854218-0.9789429
				l1.6412888,0.8349915c-0.2496033,0.4175568-0.4427719,0.8542023-0.5795135,1.3100586
				c-0.1367416,0.4559708-0.202774,0.9790573-0.1979752,1.569252v1.7277298H81.0867004z"/>
			<path style="fill:#FFFFFF;" d="M85.7133102,99.8287659v-2.879425l5.4996567-4.5494156
				c0.3646164-0.3022995,0.6778412-0.5865936,0.9394455-0.8529968c0.2614822-0.2662888,0.4630508-0.5409775,0.604599-0.8241882
				c0.1415482-0.2830963,0.2123795-0.5975189,0.2123795-0.9430466c0-0.3790131-0.0804367-0.7029266-0.2410736-0.9717331
				c-0.1608734-0.2686844-0.3828583-0.476265-0.665947-0.6227341c-0.2832184-0.146347-0.6095276-0.2195816-0.9789429-0.2195816
				c-0.3696518,0-0.6946411,0.0745544-0.9754562,0.2231827c-0.2806931,0.1488724-0.4978714,0.3671341-0.6514282,0.6550293
				c-0.1536713,0.2880173-0.2303848,0.6383438-0.2303848,1.0510941H85.425415c0-1.0366898,0.232666-1.929306,0.6982498-2.6778564
				c0.4654541-0.7486725,1.1230011-1.3245773,1.9724045-1.7276077c0.8493958-0.4031525,1.8451462-0.6047287,2.9873581-0.6047287
				c1.1805115,0,2.2038727,0.1883698,3.0700836,0.5651093c0.8662033,0.3767395,1.5356369,0.9058228,2.0084152,1.587265
				c0.4726639,0.6814346,0.709053,1.4805298,0.709053,2.3970413c0,0.5663071-0.1176529,1.1290131-0.3527222,1.6881104
				c-0.2351913,0.5591049-0.657547,1.1769104-1.2669525,1.8535538c-0.6095276,0.6766357-1.4756165,1.482933-2.5986176,2.4186554
				l-1.3820877,1.1518173v0.086319h5.7587357v3.1961365H85.7133102z"/>
			<path style="fill:#FFFFFF;" d="M103.8517761,100.0303421c-1.1326141,0-2.136879-0.2004929-3.0125732-0.60112
				c-0.8758087-0.4006271-1.5645752-0.9537277-2.0659256-1.6591797c-0.5015945-0.705452-0.7570801-1.5164337-0.7666855-2.4330597
				h3.8871841c0.0144119,0.5086746,0.2123795,0.9141083,0.5939178,1.2165298
				c0.381424,0.3022995,0.8360748,0.4534531,1.3640823,0.4534531c0.4078293,0,0.7677612-0.0875244,1.0797882-0.2626801
				c0.3119049-0.1751633,0.5565796-0.4235611,0.7342606-0.7450714c0.1774445-0.3215103,0.2637634-0.6958466,0.259079-1.1230087
				c0.0046844-0.431839-0.0816345-0.8073807-0.259079-1.1264877c-0.177681-0.3191071-0.4223557-0.5663071-0.7342606-0.7414703
				c-0.312027-0.1751556-0.6719589-0.2628021-1.0797882-0.2628021c-0.4223557,0-0.8123016,0.1020508-1.1697083,0.3060226
				c-0.3576508,0.2039795-0.6203308,0.4858704-0.7882919,0.8458023l-3.5128479-0.6910477l0.5759125-8.1198883h9.9050064v3.1961441
				h-6.622551l-0.2878952,3.2536392h0.0863266c0.2303848-0.4462433,0.6286087-0.8169785,1.1949158-1.1120758
				c0.5663071-0.2952194,1.2237396-0.4427719,1.9724045-0.4427719c0.878212,0,1.6615829,0.2039795,2.3503418,0.6119308
				c0.6885223,0.4079514,1.233223,0.9706497,1.6339722,1.6879883c0.4007416,0.7174606,0.5985947,1.5440445,0.5939178,2.4798813
				c0.0046768,1.0269623-0.2387924,1.9375916-0.7306671,2.7317657c-0.4919891,0.7942886-1.1817093,1.4158249-2.0695267,1.8644714
				C106.0951462,99.806076,105.0513763,100.0303421,103.8517761,100.0303421z"/>
		</g>
		<g>
			<path style="fill:#EC1E37;" d="M5.3351321,85.2451096L0,99.7748795h1.8445603l1.4607304-4.1148529h5.8759637l1.4607306,4.1148529
				h1.8445606L7.151413,85.2451096H5.3351321z M3.8593748,94.0992126l2.3271019-6.5554123h0.1135917l2.3271022,6.5554123H3.8593748z
				"/>
			<polygon style="fill:#EC1E37;" points="27.6102257,85.2451096 24.5737839,97.0789719 24.4319115,97.0789719 
				21.3386745,85.2451096 19.3521252,85.2451096 16.2588863,97.0789719 16.1170139,97.0789719 13.0804539,85.2451096 
				11.2926893,85.2451096 15.2656698,99.7748795 17.0818329,99.7748795 20.288662,88.1964722 20.4021358,88.1964722 
				23.6088467,99.7748795 25.4251289,99.7748795 29.3981094,85.2451096 			"/>
			<path style="fill:#EC1E37;" d="M33.375473,85.2451096l-5.3351326,14.5297699h1.8445606l1.4607315-4.1148529h5.8759632
				l1.4607315,4.1148529h1.8445587l-5.3351326-14.5297699H33.375473z M31.8997154,94.0992126l2.3271027-6.5554123h0.1135902
				l2.3271027,6.5554123H31.8997154z"/>
			<path style="fill:#EC1E37;" d="M50.0187912,93.5351562c0.723671-0.3760376,1.2603912-0.8950043,1.6105118-1.5572662
				c0.3500061-0.6621475,0.5250053-1.421196,0.5250053-2.2773895c0-0.8559647-0.1749992-1.6198654-0.5250053-2.2915955
				c-0.3501205-0.6714859-0.8892059-1.2000427-1.6176109-1.5855484c-0.7284088-0.385498-1.6600952-0.5782471-2.7951813-0.5782471
				h-4.9095192v14.5297699h1.7594872v-5.6756668h3.1783104c0.1260338,0,0.2486763-0.0031815,0.3696632-0.0079041
				l3.0642319,5.6835709h2.0432281l-3.2832375-5.9930573C49.6446037,93.7113266,49.8379898,93.6291199,50.0187912,93.5351562z
				 M44.0664787,86.8059235h3.093235c0.7850838,0,1.4164658,0.1195068,1.8942566,0.3582916
				c0.4776764,0.2388916,0.8253136,0.575882,1.0429153,1.0109634c0.2174797,0.4351959,0.3263359,0.943634,0.3263359,1.525322
				c0,0.5818024-0.1076736,1.081955-0.3227882,1.500473c-0.2153511,0.4186325-0.5605011,0.7414169-1.0358124,0.968483
				c-0.4753075,0.227066-1.1008911,0.340538-1.8765068,0.340538h-3.1216354V86.8059235z"/>
			<path style="fill:#EC1E37;" d="M62.785881,86.1142044c-1.0028-0.5793228-2.2088814-0.8690948-3.6182442-0.8690948h-4.6824532
				v14.5297699h4.4837875c1.4756241,0,2.7290344-0.2920227,3.7601166-0.8761902
				c1.0310783-0.584053,1.8162766-1.421196,2.355484-2.5114365s0.8087463-2.3920517,0.8087463-3.9056549
				c0-1.5040207-0.2672958-2.7963638-0.8016434-3.8772583C64.5570831,87.5236816,63.7885628,86.693634,62.785881,86.1142044z
				 M63.6088295,95.5393372c-0.387867,0.8561935-0.9767685,1.515976-1.7665863,1.979454
				c-0.7899323,0.4635925-1.7855148,0.6952744-2.9867439,0.6952744h-2.6108322V86.8059235h2.8093796
				c1.1352043,0,2.0834579,0.2282486,2.8449936,0.6846313c0.7614174,0.4564896,1.3337555,1.109169,1.7168884,1.9581451
				c0.3831329,0.8489838,0.5746994,1.8599472,0.5746994,3.0328979
				C64.1906281,93.6641312,63.9965782,94.6833801,63.6088295,95.5393372z"/>
			<path style="fill:#EC1E37;" d="M76.6538391,94.106308c-0.2792435-0.4683228-0.6327972-0.8525238-1.0606613-1.1529541
				c-0.4281006-0.3003082-0.8751297-0.5379028-1.3408508-0.7130203c-0.4659653-0.174881-0.8881454-0.3121414-1.2665482-0.4114151
				l-1.4755096-0.3973312c-0.2697754-0.0708771-0.5653534-0.164238-0.8869553-0.2801971
				c-0.3216095-0.1158371-0.6290131-0.2648087-0.922226-0.4470291c-0.2934418-0.1819839-0.5334015-0.4114151-0.7201157-0.6881714
				c-0.1869583-0.2766418-0.2801971-0.608902-0.2801971-0.9967651c0-0.4634781,0.1334686-0.8772583,0.4008865-1.2415771
				c0.2669373-0.36409,0.6406097-0.6501999,1.1207657-0.8584442c0.4801636-0.2080154,1.0417328-0.3121414,1.6849442-0.3121414
				c0.8798599,0,1.6222305,0.1986618,2.2278137,0.5960007c0.6053467,0.3972092,0.9506149,0.9553528,1.0358124,1.6742859h1.7026901
				c-0.0236664-0.733139-0.2494278-1.3880615-0.6775284-1.9652481c-0.4281006-0.5769501-1.0062332-1.0322647-1.7346344-1.3656998
				c-0.7284088-0.3334427-1.5606995-0.5001602-2.4973602-0.5001602c-0.9269562,0-1.7654037,0.1692047-2.5148697,0.5072556
				c-0.7497025,0.3381729-1.3458176,0.8112335-1.7878799,1.4189529c-0.4422989,0.6078262-0.6633301,1.3184891-0.6633301,2.1319656
				c0,0.9790192,0.3308411,1.7713165,0.9932175,2.3766708c0.6621475,0.6054611,1.5606995,1.0713043,2.6959076,1.397644
				L72.47509,93.38974c0.5106888,0.1418686,0.9861145,0.3075256,1.4260483,0.4966049
				c0.4396896,0.1892014,0.794426,0.4351959,1.064209,0.7378693c0.2695465,0.3026733,0.4041977,0.6952744,0.4041977,1.1776886
				c0,0.5297318-0.1559525,0.9921494-0.4680939,1.3869934c-0.3121414,0.3949738-0.7355042,0.7023773-1.2700958,0.9223404
				c-0.5343475,0.2198486-1.1375732,0.3298874-1.8089447,0.3298874c-0.5771866,0-1.1150894-0.0862579-1.6141815-0.2590103
				c-0.4990921-0.1725159-0.9103851-0.4374466-1.2343597-0.794548s-0.5097427-0.8099289-0.5570679-1.3586044h-1.8162842
				c0.0567932,0.7945557,0.3017273,1.4923096,0.7345581,2.092926c0.4325943,0.6006165,1.0287094,1.0689468,1.7876434,1.4046326
				c0.7591705,0.3358002,1.6589127,0.5038223,2.6996918,0.5038223c1.1160355,0,2.0654755-0.1869507,2.8483124-0.5605011
				c0.7828293-0.3735504,1.3787155-0.8773804,1.7878799-1.5112381c0.4091644-0.6337509,0.6136322-1.3431015,0.6136322-2.1283035
				C77.0722351,95.1492233,76.9328461,94.5745163,76.6538391,94.106308z"/>
		</g>
	</g>
</g>
</svg>
