<?xml version="1.0" encoding="UTF-8"?>
<svg id="Layer_1" xmlns="http://www.w3.org/2000/svg" version="1.1" viewBox="0 0 109.8 100">
  <!-- Generator: Adobe Illustrator 30.2.1, SVG Export Plug-In . SVG Version: 2.1.1 Build 1)  -->
  <defs>
    <style>
      .st0 {
        fill: #fff;
      }

      .st1 {
        fill: #eb1d36;
      }
    </style>
  </defs>
  <g>
    <path class="st0" d="M18.5,28.6c-.9-.6-1.9-.9-3-.9v-.3c1-.2,1.8-.6,2.6-1.1.8-.5,1.4-1.2,1.8-2,.4-.8.7-1.8.7-2.9s-.3-2.6-1-3.7c-.7-1.1-1.7-1.9-3.1-2.5-1.4-.6-3.1-.9-5.2-.9H0v28h12c2.1,0,3.9-.3,5.3-1,1.4-.7,2.5-1.6,3.2-2.8.7-1.2,1.1-2.5,1.1-4s-.3-2.6-.9-3.6c-.6-1-1.3-1.8-2.3-2.3ZM5.9,19h4.5c1.3,0,2.3.3,3,.9.7.6,1.1,1.4,1.1,2.4s-.2,1.4-.6,1.9-.9.9-1.5,1.2-1.4.4-2.2.4h-4.4v-6.9ZM14.4,36.4c-.8.6-2,1-3.6,1h-4.8v-7.4h5c.9,0,1.8.2,2.5.5.7.3,1.2.8,1.6,1.4.4.6.6,1.3.6,2.1s-.4,1.9-1.1,2.5Z"/>
    <path class="st0" d="M39.1,22.6c-.8-.6-1.8-1-2.9-1.3-1.1-.3-2.2-.4-3.4-.4-1.7,0-3.2.3-4.4.8-1.3.5-2.3,1.2-3.1,2.2-.8.9-1.3,2-1.6,3.3l5.4.4c.2-.7.6-1.3,1.2-1.7.6-.5,1.5-.7,2.5-.7s1.8.2,2.3.7c.5.5.8,1.1.8,2h0c0,.5-.2.9-.5,1.1-.3.2-.9.4-1.6.5-.7.1-1.7.2-3,.4-1,.1-2,.3-3,.5-.9.2-1.8.6-2.5,1.1-.7.5-1.3,1.1-1.8,1.9-.4.8-.6,1.8-.6,2.9s.3,2.5.9,3.5c.6.9,1.4,1.6,2.5,2.1,1,.5,2.2.7,3.6.7s2-.1,2.7-.4c.8-.3,1.5-.7,2-1.2.6-.5,1-1.1,1.4-1.7h.2v2.9h5.5v-14.2c0-1.2-.2-2.3-.7-3.2-.5-.9-1.1-1.6-2-2.2ZM36.1,34.7c0,.7-.2,1.4-.6,2-.4.6-.9,1-1.5,1.4-.7.3-1.4.5-2.3.5s-1.6-.2-2.2-.6c-.6-.4-.9-1-.9-1.8s.1-1,.4-1.4c.3-.4.7-.7,1.2-.9.5-.2,1.1-.4,1.8-.5.3,0,.7,0,1.1-.2.4,0,.8-.1,1.2-.2s.7-.2,1.1-.3.6-.2.7-.3v2.2Z"/>
    <path class="st0" d="M56,20.9c-1.2,0-2.2.3-3.1,1-.9.7-1.5,1.7-1.9,3h-.2v-3.7h-5.7v21h5.8v-11.9c0-.9.2-1.6.6-2.3.4-.7.9-1.2,1.6-1.5.7-.4,1.4-.6,2.3-.6s.8,0,1.3,0c.5,0,.9.1,1.1.2v-5.2c-.3,0-.6-.1-.9-.2-.3,0-.7,0-.9,0Z"/>
    <path class="st0" d="M16.7,64.8c1.5-.7,2.7-1.8,3.5-3.1.8-1.4,1.2-3,1.2-4.9s-.4-3.5-1.2-4.9c-.8-1.4-2-2.5-3.5-3.2s-3.4-1.1-5.5-1.1H0v28.5h6v-10.1h4.4l5.4,10.1h6.7l-6.1-11.1c0,0,.2,0,.3-.1ZM6,52.4h4.1c1.2,0,2.1.2,2.9.5.8.3,1.3.8,1.7,1.5.4.6.6,1.4.6,2.4s-.2,1.7-.6,2.4c-.4.6-.9,1.1-1.7,1.4-.8.3-1.7.5-2.9.5h-4.1v-8.6Z"/>
    <path class="st0" d="M39.4,56.1c-.8-.6-1.8-1-2.9-1.3-1.1-.3-2.2-.4-3.4-.4-1.7,0-3.2.3-4.5.8-1.3.5-2.4,1.2-3.2,2.2-.8,1-1.4,2.1-1.6,3.4l5.5.4c.2-.7.6-1.3,1.3-1.8.6-.5,1.5-.7,2.5-.7s1.8.2,2.3.7c.6.5.8,1.2.8,2h0c0,.5-.2.9-.5,1.1-.3.2-.9.4-1.7.5-.8.1-1.8.2-3,.4-1.1.1-2.1.3-3,.5-1,.3-1.8.6-2.6,1.1-.8.5-1.3,1.1-1.8,1.9-.4.8-.7,1.8-.7,3s.3,2.6.9,3.5c.6.9,1.5,1.7,2.5,2.1,1.1.5,2.3.7,3.6.7s2-.1,2.8-.4,1.5-.7,2.1-1.2,1-1.1,1.4-1.8h.2v3h5.6v-14.4c0-1.3-.2-2.4-.7-3.3-.5-.9-1.2-1.7-2-2.2ZM36.3,68.4c0,.8-.2,1.4-.6,2-.4.6-.9,1.1-1.6,1.4-.7.3-1.4.5-2.3.5s-1.7-.2-2.2-.6c-.6-.4-.9-1-.9-1.8s.1-1,.4-1.4c.3-.4.7-.7,1.2-.9.5-.2,1.1-.4,1.8-.5.3,0,.7,0,1.1-.2.4,0,.8-.1,1.2-.2.4,0,.8-.2,1.1-.3.3,0,.6-.2.8-.3v2.3Z"/>
    <rect class="st0" x="45.4" y="54.6" width="5.9" height="21.4"/>
    <path class="st0" d="M48.4,45.9c-.9,0-1.6.3-2.3.9s-.9,1.3-.9,2.1.3,1.5.9,2.1c.6.6,1.4.9,2.3.9s1.6-.3,2.3-.9.9-1.3.9-2.1-.3-1.5-.9-2.1-1.4-.9-2.3-.9Z"/>
    <path class="st0" d="M66.6,63.6l-3.9-.8c-1-.2-1.7-.5-2.1-.8-.4-.4-.6-.8-.6-1.3s.3-1.2.9-1.5,1.4-.6,2.3-.6,1.3.1,1.8.3c.5.2.9.5,1.2.9.3.4.5.8.6,1.3l5.4-.3c-.3-2-1.2-3.5-2.7-4.7-1.6-1.1-3.7-1.7-6.4-1.7s-3.4.3-4.8.8c-1.4.5-2.4,1.3-3.2,2.3-.7,1-1.1,2.2-1.1,3.5s.5,2.9,1.5,3.9c1,1,2.6,1.8,4.7,2.2l3.7.7c.9.2,1.6.5,2.1.8.4.3.7.8.7,1.3,0,.6-.3,1.2-1,1.6-.6.4-1.5.6-2.5.6s-1.9-.2-2.6-.7c-.7-.5-1.1-1.1-1.3-2l-5.8.3c.3,2,1.3,3.7,2.9,4.8,1.7,1.2,3.9,1.8,6.8,1.8s3.5-.3,4.9-.9,2.5-1.4,3.4-2.5c.8-1.1,1.2-2.3,1.2-3.7s-.5-2.8-1.5-3.7c-1-.9-2.6-1.6-4.6-2.1Z"/>
    <path class="st0" d="M91.4,57.1c-.9-.9-2-1.6-3.2-2-1.2-.4-2.5-.7-3.9-.7-2.1,0-3.9.5-5.5,1.4-1.6.9-2.8,2.2-3.6,3.9-.9,1.7-1.3,3.6-1.3,5.8s.4,4.2,1.3,5.9c.9,1.6,2.1,2.9,3.7,3.8,1.6.9,3.5,1.3,5.7,1.3s3.3-.3,4.7-.8c1.4-.5,2.5-1.3,3.3-2.3.9-1,1.4-2.1,1.7-3.4l-5.5-.4c-.2.5-.5,1-.9,1.4-.4.4-.9.6-1.4.8-.5.2-1.2.3-1.8.3-1,0-1.9-.2-2.6-.6-.7-.4-1.3-1-1.7-1.8-.4-.8-.6-1.7-.6-2.7h0s14.6,0,14.6,0v-1.6c0-1.8-.3-3.4-.8-4.8-.5-1.4-1.2-2.5-2.1-3.4ZM79.8,63.2c0-.8.2-1.5.6-2.1.4-.7.9-1.2,1.6-1.7.7-.4,1.5-.6,2.4-.6s1.6.2,2.3.6c.7.4,1.2.9,1.5,1.6.4.7.6,1.4.6,2.3h-9Z"/>
    <path class="st0" d="M108.9,54.4c-.3,0-.7,0-1,0-1.2,0-2.3.3-3.2,1-.9.7-1.6,1.7-2,3h-.2v-3.7h-5.7v21.4h5.9v-12.1c0-.9.2-1.6.6-2.3.4-.7.9-1.2,1.6-1.6.7-.4,1.5-.6,2.3-.6s.9,0,1.4,0c.5,0,.9.1,1.2.2v-5.3c-.3,0-.6-.1-.9-.2Z"/>
  </g>
  <rect class="st1" x="63.1" y="14.2" width="11.3" height="28.5"/>
  <rect class="st1" x="80.8" y="7.1" width="11.3" height="35.6"/>
  <rect class="st1" x="98.5" y="0" width="11.3" height="42.8"/>
  <g>
    <g>
      <path class="st1" d="M5.3,85.2L0,99.8h1.8l1.5-4.1h5.9l1.5,4.1h1.8l-5.3-14.5h-1.8ZM3.9,94.1l2.3-6.6h.1l2.3,6.6H3.9Z"/>
      <polygon class="st1" points="27.6 85.2 24.6 97.1 24.4 97.1 21.3 85.2 19.4 85.2 16.3 97.1 16.1 97.1 13.1 85.2 11.3 85.2 15.3 99.8 17.1 99.8 20.3 88.2 20.4 88.2 23.6 99.8 25.4 99.8 29.4 85.2 27.6 85.2"/>
      <path class="st1" d="M33.4,85.2l-5.3,14.5h1.8l1.5-4.1h5.9l1.5,4.1h1.8l-5.3-14.5h-1.8ZM31.9,94.1l2.3-6.6h.1l2.3,6.6h-4.8Z"/>
      <path class="st1" d="M50,93.5c.7-.4,1.3-.9,1.6-1.6.3-.7.5-1.4.5-2.3s-.2-1.6-.5-2.3c-.4-.7-.9-1.2-1.6-1.6s-1.7-.6-2.8-.6h-4.9v14.5h1.8v-5.7h3.2c.1,0,.2,0,.4,0l3.1,5.7h2l-3.3-6c.2,0,.4-.2.6-.2ZM44.1,86.8h3.1c.8,0,1.4.1,1.9.4.5.2.8.6,1,1,.2.4.3.9.3,1.5s-.1,1.1-.3,1.5c-.2.4-.6.7-1,1s-1.1.3-1.9.3h-3.1v-5.7Z"/>
      <path class="st1" d="M62.8,86.1c-1-.6-2.2-.9-3.6-.9h-4.7v14.5h4.5c1.5,0,2.7-.3,3.8-.9,1-.6,1.8-1.4,2.4-2.5s.8-2.4.8-3.9-.3-2.8-.8-3.9c-.5-1.1-1.3-1.9-2.3-2.5ZM63.6,95.5c-.4.9-1,1.5-1.8,2-.8.5-1.8.7-3,.7h-2.6v-11.4h2.8c1.1,0,2.1.2,2.8.7.8.5,1.3,1.1,1.7,2s.6,1.9.6,3-.2,2.2-.6,3.1Z"/>
      <path class="st1" d="M76.7,94.1c-.3-.5-.6-.9-1.1-1.2-.4-.3-.9-.5-1.3-.7-.5-.2-.9-.3-1.3-.4l-1.5-.4c-.3,0-.6-.2-.9-.3-.3-.1-.6-.3-.9-.4-.3-.2-.5-.4-.7-.7-.2-.3-.3-.6-.3-1s.1-.9.4-1.2c.3-.4.6-.7,1.1-.9.5-.2,1-.3,1.7-.3s1.6.2,2.2.6c.6.4,1,1,1,1.7h1.7c0-.7-.2-1.4-.7-2-.4-.6-1-1-1.7-1.4s-1.6-.5-2.5-.5-1.8.2-2.5.5c-.7.3-1.3.8-1.8,1.4-.4.6-.7,1.3-.7,2.1s.3,1.8,1,2.4c.7.6,1.6,1.1,2.7,1.4l1.8.5c.5.1,1,.3,1.4.5.4.2.8.4,1.1.7.3.3.4.7.4,1.2s-.2,1-.5,1.4c-.3.4-.7.7-1.3.9-.5.2-1.1.3-1.8.3s-1.1,0-1.6-.3c-.5-.2-.9-.4-1.2-.8s-.5-.8-.6-1.4h-1.8c0,.8.3,1.5.7,2.1.4.6,1,1.1,1.8,1.4.8.3,1.7.5,2.7.5s2.1-.2,2.8-.6,1.4-.9,1.8-1.5c.4-.6.6-1.3.6-2.1s-.1-1.3-.4-1.7Z"/>
    </g>
    <g>
      <path class="st0" d="M80.9,89.6v-1.7c0-.5,0-.9.3-1.4.2-.5.4-.9.7-1.3.3-.4.6-.7.9-1l1.5.8c-.3.4-.5.9-.6,1.3-.2.5-.2,1-.2,1.6v1.7h-2.6Z"/>
      <path class="st0" d="M85.7,99.8v-2.6l5.4-4.7c.4-.4.8-.7,1-1,.3-.3.5-.6.7-.9s.2-.7.2-1,0-.8-.3-1.1c-.2-.3-.4-.5-.7-.7s-.7-.2-1.1-.2-.8,0-1.1.3-.5.4-.7.7-.3.7-.3,1.1h-3.4c0-1,.2-1.9.7-2.6.5-.7,1.1-1.3,1.9-1.7s1.8-.6,2.9-.6,2.1.2,2.9.6c.8.4,1.5.9,1.9,1.6.5.7.7,1.5.7,2.3s-.1,1.1-.3,1.7c-.2.6-.6,1.2-1.2,1.8-.6.7-1.4,1.5-2.5,2.4l-1.8,1.6h0c0,0,6,0,6,0v2.9h-11Z"/>
      <path class="st0" d="M104,100c-.8,0-1.6-.1-2.3-.4s-1.4-.7-2-1.3-1-1.3-1.4-2.3c-.3-.9-.5-2.1-.5-3.4,0-1.2.2-2.3.4-3.3.3-1,.7-1.8,1.3-2.5.5-.7,1.2-1.2,2-1.6.8-.4,1.6-.5,2.6-.5s2,.2,2.8.6,1.4.9,1.9,1.6c.5.7.8,1.4.8,2.3h-3.5c-.1-.5-.3-.8-.7-1.1-.4-.2-.8-.4-1.3-.4-.9,0-1.6.4-2,1.2-.4.8-.7,1.8-.7,3.2h0c.2-.4.5-.8.9-1.1.4-.3.8-.6,1.3-.7s1-.3,1.6-.3c.9,0,1.7.2,2.4.6.7.4,1.2,1,1.6,1.7.4.7.6,1.5.6,2.4,0,1-.2,1.9-.7,2.7s-1.2,1.4-2,1.8c-.9.4-1.9.7-3,.7ZM104,97.3c.4,0,.8-.1,1.2-.3.3-.2.6-.5.8-.8.2-.4.3-.8.3-1.2,0-.5,0-.9-.3-1.2-.2-.4-.5-.6-.8-.8-.3-.2-.7-.3-1.2-.3s-.6,0-.9.2c-.3.1-.5.3-.7.5-.2.2-.4.5-.5.8-.1.3-.2.6-.2.9,0,.4.1.8.3,1.2.2.4.5.6.8.9.3.2.7.3,1.2.3Z"/>
    </g>
  </g>
</svg>